<svg width="98" height="18" viewBox="0 0 98 18" fill="none" xmlns="http://www.w3.org/2000/svg">
<path fill-rule="evenodd" clip-rule="evenodd" d="M6.99654 4.62752C7.89108 5.6934 10.1082 6.12833 10.5747 6.20796V6.20184C10.6258 6.21409 10.6705 6.26309 10.6705 6.32435C10.7216 7.15745 10.8686 11.0779 5.34165 11.084C5.33846 11.084 5.30012 11.0917 5.26178 11.0994L5.26176 11.0994L5.26173 11.0994L5.26166 11.0994C5.22336 11.107 5.1851 11.1147 5.18191 11.1147C5.17085 11.1172 5.15158 11.1208 5.12479 11.1259L5.12459 11.1259L5.1245 11.1259C4.88788 11.1706 4.06789 11.3253 3.15004 11.7763V17.9939H0V3.02871C0 1.77906 0.81786 0.529405 1.17567 0.0454719C1.23318 -0.0402884 1.35458 0.00259178 1.36736 0.112855C1.47598 0.884698 1.84658 3.02871 2.66444 3.03483C3.66759 3.03483 5.99977 3.433 6.99654 4.62752ZM47.8704 7.07781H48.7074V7.09006C48.816 7.09006 48.9055 7.18195 48.9055 7.28609C48.8863 8.18657 48.5732 11.9171 44.8865 11.9171C43.4488 11.9171 42.2668 12.3643 41.3211 12.983V18H38.1711V5.83429C38.1711 5.83429 38.3883 1.45439 41.5383 1.26449C41.6534 1.25836 41.7492 1.34412 41.7492 1.45439V2.76529C41.7492 2.87556 41.845 2.95519 41.9601 2.95519C42.8801 2.91231 46.5861 2.98582 47.6787 6.93692C47.6979 7.01655 47.7809 7.07781 47.8704 7.07781ZM53.5187 2.90001H50.3687V17.9938H53.5187V2.90001ZM66.1125 17.9938L69.2625 2.90001H72.4062L75.5562 17.9938H72.4062L70.8344 10.4469L69.2625 17.9938H66.1125ZM12.5938 2.90001V17.9938H15.7438H22.0375V14.9738H15.7438V11.96H18.8875V8.93999H15.7438V5.92H22.0375V2.90001H15.7438H12.5938ZM25.1875 2.90001H28.3312H31.4812H34.6313V5.92H31.4812V17.9938H28.3312V5.92H25.1875V2.90001ZM66.1125 2.90001H62.9625H59.8188H56.6688V5.92H59.8188V17.9938H62.9625V5.92H66.1125V2.90001ZM81.8563 2.90001V14.9738H85V17.9938H81.8563H78.7063V2.90001H81.8563Z" fill="#15B5BF"/>
<path d="M97.986 6.73097C97.9816 6.66472 97.9417 6.61172 97.8886 6.60288C97.4103 6.51749 95.1222 6.05813 94.204 4.92151C93.175 3.64944 90.7732 3.22394 89.7443 3.22394C88.8999 3.22394 88.5176 0.940396 88.4068 0.118849C88.3906 0.00106468 88.2725 -0.0416322 88.2075 0.0481785C87.8444 0.562013 87 1.89298 87 3.22394V6.7825C87.0974 6.02868 87.5093 4.06168 89.1789 3.95715C89.2542 3.95273 89.3191 4.01162 89.3191 4.08671V4.98187C89.3191 5.05549 89.3811 5.11585 89.455 5.11144C90.0587 5.08052 92.4871 5.13058 93.206 7.82784C93.2208 7.88526 93.2725 7.92649 93.333 7.92649H93.8836C93.9574 7.92649 94.015 7.98685 94.0135 8.05899C94.0002 8.67442 93.795 11.22 91.3755 11.22C87.9079 11.22 87.1521 13.9512 87 15.4632V18C87 12.6261 92.2125 13.4741 92.4783 13.4094C92.4856 13.4079 92.493 13.4064 92.4989 13.4064C98.1898 13.399 98.0421 7.6173 97.986 6.73097Z" fill="#15B5BF"/>
</svg>
