<svg width="375" height="296" viewBox="0 0 375 296" fill="none" xmlns="http://www.w3.org/2000/svg">
<rect width="375" height="296" fill="#FAFAFA"/>
<path d="M202.961 120.193C202.948 119.994 202.836 119.835 202.686 119.809C201.338 119.552 194.89 118.174 192.302 114.765C189.402 110.948 182.634 109.672 179.734 109.672C177.354 109.672 176.277 102.821 175.965 100.357C175.919 100.003 175.586 99.8751 175.403 100.145C174.38 101.686 172 105.679 172 109.672V120.348C172.275 118.086 173.435 112.185 178.141 111.871C178.353 111.858 178.536 112.035 178.536 112.26V114.946C178.536 115.166 178.71 115.348 178.919 115.334C180.62 115.242 187.464 115.392 189.49 123.484C189.531 123.656 189.677 123.779 189.848 123.779H191.399C191.607 123.779 191.77 123.961 191.765 124.177C191.728 126.023 191.15 133.66 184.331 133.66C174.559 133.66 172.429 141.853 172 146.39V154C172 137.878 186.69 140.422 187.439 140.228C187.46 140.224 187.48 140.219 187.497 140.219C203.535 140.197 203.119 122.852 202.961 120.193Z" fill="#C5C5C5"/>
<path d="M171.972 160.328H170.468V174.344H171.972V160.328ZM160.836 166.28C160.836 169.304 162.356 171.208 164.452 171.208C166.548 171.208 168.084 169.304 168.068 166.28C168.084 163.288 166.548 161.384 164.452 161.384C162.356 161.384 160.836 163.288 160.836 166.28ZM162.276 166.28C162.276 164.088 163.172 162.712 164.452 162.696C165.748 162.712 166.644 164.088 166.628 166.28C166.644 168.504 165.748 169.88 164.452 169.864C163.172 169.88 162.276 168.504 162.276 166.28ZM181.544 161.672H174.952V170.856H181.544V161.672ZM176.424 169.672V162.856H180.104V169.672H176.424ZM184.296 174.344H185.8V160.328H184.296V174.344ZM193.164 164.456V162.952H196.364V161.736H188.46V162.952H191.66V164.456C191.66 166.856 190.092 169.496 187.98 170.472L188.844 171.656C190.476 170.872 191.788 169.16 192.444 167.176C193.1 169.032 194.396 170.568 196.044 171.304L196.876 170.12C194.7 169.208 193.164 166.792 193.164 164.456ZM198.124 174.312H199.628V160.328H198.124V174.312ZM212.752 160.328H211.28V174.312H212.752V167.144H214.928V165.896H212.752V160.328ZM201.84 170.568L202.672 171.72C207.296 169.464 209.088 165.848 209.104 161.8H202.544V163.048H207.584C207.264 166.312 205.36 168.824 201.84 170.568ZM154.081 180H143.649V181.184H147.873C147.777 182.72 145.793 184.048 143.169 184.384L143.745 185.536C146.129 185.232 148.081 184.112 148.849 182.544C149.601 184.128 151.585 185.232 153.985 185.536L154.529 184.384C151.921 184.048 149.905 182.72 149.825 181.184H154.081V180ZM142.465 187.648H148.257V190.368H149.697V187.648H155.265V186.464H142.465V187.648ZM144.033 193.024H153.857V191.84H145.537V189.024H144.033V193.024ZM167.909 179.328H166.405V193.344H167.909V179.328ZM157.061 190.016H163.781V180.48H162.341V184.096H158.565V180.48H157.061V190.016ZM158.565 188.768V185.248H162.341V188.768H158.565ZM182.889 185.824H170.121V187.008H175.753V188.368C173.161 188.496 171.641 189.36 171.625 190.816C171.641 192.416 173.449 193.312 176.489 193.312C179.513 193.312 181.321 192.416 181.321 190.816C181.321 189.36 179.801 188.496 177.225 188.368V187.008H182.889V185.824ZM170.793 183.904L171.305 185.088C173.737 184.8 175.737 183.776 176.505 182.288C177.273 183.776 179.273 184.8 181.705 185.088L182.249 183.904C179.673 183.648 177.689 182.512 177.497 181.152H181.737V179.968H171.305V181.152H175.513C175.289 182.496 173.305 183.648 170.793 183.904ZM173.161 190.816C173.129 189.968 174.361 189.488 176.489 189.472C178.617 189.488 179.833 189.968 179.849 190.816C179.833 191.68 178.617 192.176 176.489 192.16C174.361 192.176 173.129 191.68 173.161 190.816ZM199.472 179.328H198V186.848H199.472V179.328ZM188.144 183.232C188.144 185.136 189.728 186.464 191.888 186.464C194.016 186.464 195.6 185.136 195.6 183.232C195.6 181.296 194.016 179.968 191.888 179.968C189.728 179.968 188.144 181.296 188.144 183.232ZM189.584 183.232C189.584 182.016 190.544 181.216 191.888 181.216C193.184 181.216 194.144 182.016 194.128 183.232C194.144 184.432 193.184 185.232 191.888 185.248C190.544 185.232 189.584 184.432 189.584 183.232ZM190.32 193.152H199.472V187.52H198V189.088H191.76V187.52H190.32V193.152ZM191.76 191.936V190.272H198V191.936H191.76ZM213.3 179.328H211.828V193.312H213.3V179.328ZM202.548 189.76H203.732C205.924 189.776 208.18 189.6 210.644 189.088L210.452 187.84C208.212 188.304 206.052 188.48 204.02 188.48V180.704H202.548V189.76ZM226.424 179.328H224.952V193.344H226.424V185.984H228.664V184.736H226.424V179.328ZM216.12 189.888H217.24C219.832 189.888 221.704 189.808 223.896 189.44L223.704 188.16C221.704 188.528 219.944 188.624 217.592 188.64V181.888H222.648V180.672H216.12V189.888ZM230.94 192.096C231.532 192.112 232.044 191.616 232.028 191.008C232.044 190.384 231.532 189.888 230.94 189.888C230.332 189.888 229.82 190.384 229.82 191.008C229.82 191.616 230.332 192.112 230.94 192.096Z" fill="#C5C5C5"/>
</svg>
